# xmcd
#
# Track frame offsets:
#	150
#	14924
#	28607
#	43678
#	65842
#
# Disc length: 1103 seconds
#
# Revision: 0
# Processed by: cddbd v1.5.2PL0 Copyright (c) Steve Scherf et al.
# Submitted via: EasyCDDAExtractor 2010.6.0.0
#
DISCID=45044d05
DTITLE=IZA TROJANOWSKA - Nareszczie Czuję
DYEAR=2014
DGENRE=pop
TTITLE0=Taki świat
TTITLE1=Nie od razu
TTITLE2=Życia zawsze mało
TTITLE3=Nareszczie czuję
TTITLE4=Kochaj mnie za wszystko
EXTD=
EXTT0=
EXTT1=
EXTT2=
EXTT3=
EXTT4=
PLAYORDER=
